<?xml version="1.0" encoding="utf-8"?>
<!-- Generator: Adobe Illustrator 27.8.1, SVG Export Plug-In . SVG Version: 6.00 Build 0)  -->
<svg version="1.1" id="Layer_1" xmlns="http://www.w3.org/2000/svg" xmlns:xlink="http://www.w3.org/1999/xlink" x="0px" y="0px"
	 viewBox="0 0 809 674" style="enable-background:new 0 0 809 674;" xml:space="preserve">
<style type="text/css">
	.st0{display:none;}
	.st1{display:inline;fill:#EBEBEB;}
	.st2{display:inline;fill-rule:evenodd;clip-rule:evenodd;fill:#EBEBEB;}
	.st3{display:inline;fill:#E6E6E6;}
	.st4{display:inline;fill:#F0F0F0;}
	.st5{display:inline;fill:#F5F5F5;}
	.st6{display:inline;fill:#FFFFFF;}
	.st7{display:inline;fill:#FAFAFA;}
	.st8{display:inline;fill:#407BFF;}
	.st9{display:inline;opacity:0.9;fill:#FFFFFF;enable-background:new    ;}
	.st10{fill:#F5F5F5;}
	.st11{fill:#FF8B7B;}
	.st12{opacity:0.2;enable-background:new    ;}
	.st13{fill:#263238;}
	.st14{fill:#407BFF;}
	.st15{opacity:0.6;enable-background:new    ;}
	.st16{opacity:0.3;enable-background:new    ;}
	.st17{fill:#FFFFFF;}
	.st18{fill-rule:evenodd;clip-rule:evenodd;fill:#263238;}
	.st19{fill:#2D3033;}
	.st20{fill:#FEBD69;}
	.st21{fill:#FF5652;}
	.st22{fill-rule:evenodd;clip-rule:evenodd;fill:#407BFF;}
	.st23{fill-rule:evenodd;clip-rule:evenodd;fill:#FEBD69;}
	.st24{fill:#232F3E;}
	.st25{opacity:0.1;fill:#232F3E;enable-background:new    ;}
	.st26{opacity:0.3;}
	.st27{fill-rule:evenodd;clip-rule:evenodd;fill:#FAFAFA;}
	.st28{fill:#FAFAFA;}
	.st29{fill:#E6E6E6;}
	.st30{opacity:0.4;fill:#232F3E;enable-background:new    ;}
	.st31{fill:#B55B52;}
	.st32{fill:#A02724;}
	.st33{fill-rule:evenodd;clip-rule:evenodd;fill:#1C6F4B;}
	.st34{fill:#1C6F4B;}
	.st35{opacity:0.3;fill:#156341;enable-background:new    ;}
</style>
<g class="st0">
	<path class="st1" d="M913,574.3H-87v-0.5H913V574.3z"/>
	<path class="st1" d="M746.6,606h66.2v0.5h-66.2V606z"/>
	<path class="st1" d="M558.1,611.4h17.3v0.5h-17.3V611.4z"/>
	<path class="st1" d="M706.2,587.4h38.4v0.5h-38.4V587.4z"/>
	<path class="st1" d="M17.9,590.8h86.4v0.5H17.9V590.8z"/>
	<path class="st1" d="M122.1,590.8h12.7v0.5h-12.7L122.1,590.8z"/>
	<path class="st1" d="M175.9,599.2h187.4v0.5H175.9V599.2z"/>
	<path class="st2" d="M387,484.6H0.8c-6.3,0-11.4-5.1-11.4-11.4V-69.7c0-6.3,5.1-11.4,11.4-11.4H387c6.3,0,11.4,5.1,11.4,11.4v542.9
		C398.4,479.5,393.3,484.6,387,484.6z M0.8-80.6c-6,0-10.9,4.9-10.9,10.9v542.9c0,6,4.9,10.9,10.9,10.9H387c6,0,10.9-4.9,10.9-10.9
		V-69.7c0-6-4.9-10.9-10.9-10.9H0.8z"/>
	<path class="st2" d="M819.6,484.6H433.4c-6.3,0-11.4-5.1-11.4-11.4V-69.7c0-6.3,5.1-11.4,11.4-11.4h386.2c6.3,0,11.4,5.1,11.4,11.4
		v542.9C831,479.5,825.9,484.6,819.6,484.6z M433.4-80.6c-6,0-10.9,4.9-10.9,10.9v542.9c0,6,4.9,10.9,10.9,10.9h386.2
		c6,0,10.9-4.9,10.9-10.9V-69.7c0-6-4.9-10.9-10.9-10.9H433.4z"/>
</g>
<g class="st0">
	<path class="st3" d="M659.3,157.2H631V69h28.3V157.2z"/>
	<path class="st4" d="M736.1,157.2h-94L627.9,54h94L736.1,157.2z"/>
	<path class="st5" d="M746.3,157.2h-97.1L635,54h97.1L746.3,157.2z"/>
	<path class="st6" d="M656.2,149.1l-11.9-87h80.8l12,87H656.2z"/>
	<path class="st5" d="M672.2,122.8l-4.5-32.7c-0.5-3.6,2.3-6.9,6-6.9h29.4c3,0,5.6,2.2,6,5.3l4.5,32.6c0.5,3.7-2.3,6.9-6,6.9h-29.4
		C675.2,128,672.6,125.8,672.2,122.8z"/>
	<path class="st3" d="M482.9,233.7H59.3V-27.6h423.6V233.7z"/>
	<path class="st4" d="M493.8,233.7H64.4V-27.6h429.4V233.7z"/>
	<path class="st3" d="M482.9,233.7H59.3v20.2h423.6V233.7z"/>
	<path class="st4" d="M511.9,233.7H82.5v20.2h429.4V233.7z"/>
	<path class="st7" d="M79.6,218.4V-12.4h398.9v230.8L79.6,218.4L79.6,218.4z"/>
	<path class="st6" d="M108.9,218.4l89.4-230.8h42.2l-89.4,230.8H108.9z"/>
	<path class="st6" d="M160.2,218.4l89.4-230.8h16.5l-89.5,230.8H160.2z"/>
	<path class="st6" d="M316.6,218.4l89.5-230.8h16.4l-89.4,230.8H316.6z"/>
	<path class="st3" d="M476.6,218.4V-12.4h1.9v230.8L476.6,218.4L476.6,218.4z"/>
	<path class="st3" d="M804,573.8h-89.7V157.2H804V573.8z"/>
	<path class="st4" d="M795,573.8h9v-25.7h-18.5L795,573.8z"/>
	<path class="st3" d="M646.9,573.8h-89.7V157.2h89.7V573.8z"/>
	<path class="st4" d="M804,558.1H639V157.2h165V558.1z"/>
	<path class="st4" d="M648,573.8h-9v-25.7h18.5L648,573.8z"/>
	<path class="st3" d="M797,353.7H646V164.6h151V353.7z"/>
	<path class="st4" d="M737.8,179.3h-32.7c-14.2,0-27.7-5.8-37.5-16.2h107.8C765.6,173.5,752.1,179.3,737.8,179.3z"/>
	<path class="st3" d="M797,550.4H646V361.3h151V550.4z"/>
	<path class="st4" d="M737.8,376h-32.7c-14.2,0-27.7-5.8-37.5-16.1h107.8C765.6,370.2,752.1,376,737.8,376z"/>
	<path class="st3" d="M172,288.8h149.2l21.7,88.1H193.6L172,288.8z"/>
	<path class="st3" d="M193.6,376.9l0.6,4.9h149.3l-0.6-4.9H193.6z"/>
	<path class="st4" d="M176.6,288.8h149.2l21.7,88.1H198.2L176.6,288.8z"/>
	<path class="st6" d="M201.4,372.9l-19.7-80.1h141l19.6,80.1H201.4z"/>
	<path class="st4" d="M237.1,376.9l0.6,4.9h164.4l-0.6-4.9H237.1z"/>
	<path class="st3" d="M439.6,573.8h-17.9v-192h17.9V573.8z"/>
	<path class="st4" d="M445.2,573.8h-12.4v-192h12.4V573.8z"/>
	<path class="st4" d="M218.6,403.8h230.5v-22H218.6V403.8z"/>
	<path class="st3" d="M210.6,573.8h-17.8v-170h17.8V573.8z"/>
	<path class="st4" d="M216.3,573.8h-12.4v-170h12.4V573.8z"/>
	<path class="st3" d="M97.5,573.8H79.6v-170h17.9V573.8z"/>
	<path class="st4" d="M103.1,573.8H90.7v-170h12.4V573.8z"/>
	<path class="st3" d="M326.4,573.8h-17.9v-170h17.9V573.8z"/>
	<path class="st4" d="M332,573.8h-12.4v-170H332V573.8z"/>
	<path class="st3" d="M218.6,403.8h-139v-22h139V403.8z"/>
	<path class="st4" d="M497.7,573.8h-4.4l-12.4-61.3l-2.2-10.7L465.1,435h-52L385,573.8h-4.4l28.7-141.4c0.2-1,1.1-1.7,2.1-1.7h55.5
		c1,0,1.9,0.7,2.1,1.7l11.9,58.7l2.2,10.7L497.7,573.8z"/>
	<path class="st4" d="M581.2,573.8h-4.4L548.6,435h-52l-13.5,66.8l-2.2,10.7l-12.5,61.3h-4.3l14.6-72l2.2-10.7l11.9-58.7
		c0.2-1,1.1-1.7,2.1-1.7h55.5c1,0,1.9,0.7,2.1,1.7L581.2,573.8z"/>
	<path class="st4" d="M453,432.9h95.5c18.3,0,28.4-12.4,33.6-32.9l2.5-11.7c2.1-9.6-1.5-19.7-9.6-25.3c-3.9-2.7-8.7-4.3-13.8-4.3
		h-59.9c-12.4,0-15.7,3-24.3,21.7C468.5,399.1,453,432.9,453,432.9L453,432.9z"/>
	<path class="st4" d="M411.6,414.5h93.5v18.4H403.3c-2.7,0-4.8-2.2-4.8-4.8v-0.5C398.5,420.4,404.4,414.5,411.6,414.5z"/>
</g>
<g class="st0">
	<path class="st8" d="M482.8,194.1C368.6,116.8,195.6-129.6,62.6,84.9C-32.9,239,236,398.3,350,448.2
		C495.8,512,756.6,488.3,792.6,293c14.5-78.2-22.4-109.5-92.6-95.2C617.5,214.5,566.9,251.1,482.8,194.1z"/>
	<path class="st9" d="M482.8,194.1C368.6,116.8,195.6-129.6,62.6,84.9C-32.9,239,236,398.3,350,448.2
		C495.8,512,756.6,488.3,792.6,293c14.5-78.2-22.4-109.5-92.6-95.2C617.5,214.5,566.9,251.1,482.8,194.1z"/>
</g>
<path class="st10" d="M800.8,641.5c0,12.5-173.6,22.6-387.8,22.6S25.2,654,25.2,641.5s173.6-22.7,387.8-22.7S800.8,629,800.8,641.5z
	"/>
<path class="st11" d="M319.1,577.5l-12.8,8.2l-23.2-26.9l12.8-8.3L319.1,577.5z"/>
<path class="st12" d="M295.9,550.5l-12.8,8.3l11.9,13.9l12.8-8.3L295.9,550.5z"/>
<path class="st11" d="M221.2,621.5l-14.7,1.4l-15.3-35l14.7-1.4L221.2,621.5z"/>
<path class="st12" d="M191.2,588l7.9,18h15.4l-8.6-19.5L191.2,588z"/>
<path class="st13" d="M109.5,149c-7.4,0.7-7.6-11.9-20.6-6c-16.6,7.6-11,19.2-23.9,18.7s-21.5,9.6-18.6,17.1s7.3,14.6-1.8,17.6
	c-9.1,3.1-15.3,5.7-14,13.3c1.3,7.5,7.8,10.6-3.1,15.4c-10.9,4.8-9.8,25.7,0.9,25.7c10.6,0,0.4,10.4,10,20.9
	c9.5,10.6,24.1,12.1,30.1,6.8c6.1-5.3,12.8-9.5,24.2-1.5s30.7,10,29.9-2.7c-0.9-12.6-12-21-1.6-27.6c10.5-6.6,24.1-9.8,19.8-22.7
	c-2.7-8-10.9-14.9-4.3-20.9c10.7-9.7,10.8-31.7-2.3-37.3C126.5,162.6,133.9,146.8,109.5,149L109.5,149z"/>
<path class="st11" d="M95.2,247.8c-0.3,6-1.1,11.4-2,17c-0.9,5.6-2.1,11.1-3.6,16.6c-1.4,5.5-3.2,11-5.4,16.3
	c-1.1,2.7-2.4,5.3-3.7,8c-0.7,1.3-1.4,2.6-2.1,3.9c-0.3,0.6-0.7,1.3-1.1,1.9l-0.6,1c-0.3,0.5-0.8,1.2-1.3,1.7c-1,1.2-2.5,2.3-4,3
	s-2.9,1-4.3,1.1c-2.6,0.2-4.7-0.4-6.5-0.9c-3.5-1.2-6.2-2.7-8.8-4.3c-5-3.3-9.4-6.9-13.6-10.6c-8.3-7.6-15.9-15.5-23-24.1l5.7-5.3
	c3.9,3.5,8,7.1,12.1,10.5s8.3,6.8,12.6,9.9c4.2,3.1,8.5,6.2,12.8,8.4c2.1,1.2,4.3,2.1,6,2.5c0.8,0.2,1.5,0.2,1.5,0.1
	c0.1,0-0.1,0-0.4,0.1c-0.2,0.1-0.5,0.4-0.7,0.5c-0.1,0.1-0.1,0.1-0.1,0.1s-0.1,0.2,0,0l0.4-0.8c0.3-0.5,0.6-1,0.9-1.6
	c0.5-1.1,1.1-2.2,1.6-3.4c1-2.3,1.9-4.6,2.8-7c1.7-4.8,3.1-9.7,4.3-14.8c1.2-5,2.2-10.2,3-15.3c0.9-5.1,1.5-10.5,2-15.4L95.2,247.8z
	"/>
<path class="st14" d="M106.8,249.7c-0.8,4.9-4.8,14-8,20.8c-2.4,4.9-4.3,8.6-4.3,8.6l-2.8-1.2l-23.2-10.3
	c1.8-12.5,4.6-26.1,18.4-32.2C95.6,231.6,108.3,241.1,106.8,249.7L106.8,249.7z"/>
<path class="st15" d="M106.8,249.7c-0.8,4.9-4.8,14-8,20.8c-2.4,4.9-4.3,8.6-4.3,8.6l-2.8-1.2l-23.2-10.3
	c1.8-12.5,4.6-26.1,18.4-32.2C95.6,231.6,108.3,241.1,106.8,249.7L106.8,249.7z"/>
<path class="st16" d="M98.8,270.5c-2.4,4.9-4.3,8.6-4.3,8.6l-2.8-1.2c0.4-4.9,1.4-12.7,4-16.2C97.4,264.2,98.3,267.3,98.8,270.5
	L98.8,270.5z"/>
<path class="st11" d="M21.7,277.6l1.9-13.5l-15.1,5c0,0,2.4,8.1,7.8,11.5L21.7,277.6z"/>
<path class="st11" d="M16.7,252.6l-10.5,5.8l2.3,10.7l15.1-5L16.7,252.6z"/>
<path class="st13" d="M301.5,581.7l13.9-10c0.5-0.3,1.2-0.3,1.6,0.2l9.5,9.8c1,1.1,0.8,2.8-0.4,3.7c-4.9,3.4-7.4,4.7-13.6,9.1
	c-3.7,2.7-11.6,9.2-16.8,13c-5.1,3.6-9.2-1.2-7.4-3.3c8.2-9,10.4-15.2,11.7-20.2C300.3,583,300.8,582.2,301.5,581.7L301.5,581.7z"/>
<path class="st13" d="M204.6,618.4h18c0.7,0,1.3,0.5,1.5,1.1l3.9,14.3c0.4,1.5-0.7,2.8-2.2,2.8c-6.4,0.1-9.4,0.1-17.3,0.1
	c-4.9,0-17.6,0-24.3,0c-6.6,0-8-6.7-5.3-7.3c12.3-2.7,19.3-6.4,23.1-10C202.7,618.7,203.6,618.4,204.6,618.4L204.6,618.4z"/>
<path class="st14" d="M177.1,303.9c-11.4,3.6-35.6,11.3-58.9,18.7c-40.8-80.8-35-85.1-35-85.1s9.4-5.4,19.2-9.8c1.5-0.7,3-1.4,4.5-2
	c8.4-3.6,16.7-5.8,26.7-8.5c1.3-0.3,2.7-0.7,4-1c11.5-2.6,22.1-3.6,22.1-3.6c0.9,11.2,1.8,20.6,2.7,28.9c1.3,10.7,2.6,19.3,4.1,26.7
	C169.3,282,172.7,291.8,177.1,303.9L177.1,303.9z"/>
<path class="st15" d="M177.1,303.9c-11.4,3.6-35.6,11.3-58.9,18.7c-40.8-80.8-35-85.1-35-85.1s9.4-5.4,19.2-9.8c1.5-0.7,3-1.4,4.5-2
	c8.4-3.6,16.7-5.8,26.7-8.5c1.3-0.3,2.7-0.7,4-1c11.5-2.6,22.1-3.6,22.1-3.6c0.9,11.2,1.8,20.6,2.7,28.9c1.3,10.7,2.6,19.3,4.1,26.7
	C169.3,282,172.7,291.8,177.1,303.9L177.1,303.9z"/>
<path class="st16" d="M166.5,268.2c-5.7-8.1-11.1-26.6-9.7-33.6l5.6,6.9C163.7,252.2,165,260.8,166.5,268.2L166.5,268.2z"/>
<path class="st17" d="M120.3,252.6c0,0,14.8-3.2,19.6,3.2c6.6-6.4,4.2-31.7,1.1-40.7c-2.5,0.3-7.4,2.1-7.4,2.1l-10.5,16.3
	L120.3,252.6z"/>
<path class="st17" d="M120.3,252.6c0,0-10.1,2.2-11.1,10.4c-14-10.4-13-25.7-9.9-34.7c2.3-1.4,7.6-2.6,7.6-2.6l10.5,11.6
	L120.3,252.6z"/>
<path class="st11" d="M123.7,200.2c1.9,7.3,5,14.6,9.9,17c0,0,4.7,13.3-13.3,35.4c-18.9-13.4-13.4-26.9-13.4-26.9
	c8.8-5.3,6.3-12.4,2.6-18.5l5.2-8.4C117,195.1,122.6,196,123.7,200.2L123.7,200.2z"/>
<path class="st12" d="M123.7,200.2c-1.1-4.2-6.7-5.1-9-1.4l-1.7,2.7l0,0c0.1,1.8,0.2,3.2,0.2,4c-0.2,5.2,7.1,4.9,13.1,2.4
	C125.2,205.5,124.4,202.9,123.7,200.2z"/>
<path class="st11" d="M87.5,180.1c5.2,14.2,7.1,20.3,16.6,25.5c14.3,7.9,30.6-1.6,29.7-17c-0.7-13.9-9.1-34.8-24.9-36.3
	C93.2,150.7,82.3,165.9,87.5,180.1z"/>
<path class="st18" d="M125.1,159.6l-0.3,0.3c-0.4,0.5-1,1.1-1.8,1.8c-3.7,3.4-8.6,3.4-13,1.7c-4,1.2-8,2.3-11.1,2.6
	c2.2,8,2,18.7-3.5,25.8c-9.6,12.2-15.4-14-15.4-14l9.4-20.4c0,0,4.2-6.6,15.1-7.7c9.8-1.1,14.9,4.4,19.8,9.1
	C125.4,158.3,126.3,158.2,125.1,159.6L125.1,159.6z M122.1,160.1c-2.8,0.5-6.5,1.7-10.4,2.8C117.3,164.2,120.9,161.7,122.1,160.1z"
	/>
<path class="st11" d="M88.2,194.5c1.6,2.7,4.3,4.4,6.8,5.1c3.7,0.9,5.5-2.5,4.4-6c-1.1-3.1-4.2-7.4-8-6.8
	C87.8,187.4,86.4,191.4,88.2,194.5z"/>
<path class="st19" d="M118.2,322.6c0,0-2.1,120.8,13.7,164.4c15.2,41.8,60.6,113.8,60.6,113.8l26.3-0.7c0,0-41.8-91.1-48.6-127.1
	c-11.4-59.7-8.9-164.1-8.9-164.1L118.2,322.6z"/>
<path class="st16" d="M141.8,332.9l7-20l12.5-4c0,0-1.1,47.5,1.6,96.7C151.6,383.8,141.8,343.8,141.8,332.9L141.8,332.9z"/>
<path class="st13" d="M188.8,602.1l32.4-0.8l-1.8-10l-35.5,1.7L188.8,602.1z"/>
<path class="st19" d="M131.1,318.7c0,0,41,93.8,67.5,147.1c21.4,43.2,88,101,88,101l18.2-12.7c0,0-50.1-68.5-64.9-97.7
	c-47.3-93.6-35.6-132.1-62.8-152.5L131.1,318.7z"/>
<path class="st13" d="M287.6,572.8l21.4-15.2l-4.8-9.4L280.6,566L287.6,572.8z"/>
<path class="st13" d="M176.9,300.2l4.3,4.4c0.4,0.4,0,0.9-0.7,1.2l-61.8,19.5c-0.5,0.2-1,0.1-1.2-0.3l-2.2-5.1
	c-0.1-0.3,0.2-0.8,0.8-1l59.7-18.9C176.2,299.9,176.7,300,176.9,300.2L176.9,300.2z"/>
<path class="st20" d="M171,309.4l1.6-0.5c0.3-0.1,0.5-0.4,0.4-0.5l-2.9-6.7c-0.1-0.2-0.4-0.2-0.7-0.1l-1.6,0.5
	c-0.4,0.1-0.6,0.3-0.5,0.5l3,6.6C170.3,309.4,170.7,309.5,171,309.4z"/>
<path class="st20" d="M123.4,324.5l1.6-0.5c0.3-0.1,0.5-0.4,0.4-0.6l-2.9-6.6c-0.1-0.2-0.4-0.3-0.8-0.2l-1.6,0.5
	c-0.3,0.1-0.5,0.4-0.4,0.6l2.9,6.6C122.7,324.5,123.1,324.6,123.4,324.5z"/>
<path class="st20" d="M147.2,316.9l1.6-0.5c0.3-0.1,0.5-0.3,0.4-0.5l-2.9-6.6c-0.1-0.2-0.4-0.3-0.7-0.2l-1.6,0.5
	c-0.4,0.1-0.6,0.3-0.5,0.5l2.9,6.7C146.5,317,146.9,317,147.2,316.9z"/>
<path class="st13" d="M112.4,177c0.3,1.1,1.2,1.9,2,1.7c0.8-0.3,1.1-1.4,0.8-2.6c-0.4-1.1-1.3-1.9-2.1-1.7
	C112.4,174.6,112,175.8,112.4,177z"/>
<path class="st13" d="M125.7,173c0.3,1.2,1.2,1.9,2,1.7s1.1-1.3,0.8-2.5c-0.4-1.2-1.3-2-2.1-1.7C125.7,170.7,125.3,171.8,125.7,173z
	"/>
<path class="st13" d="M126.1,170.6l2.6-1.6C128.7,169,127.9,171.6,126.1,170.6z"/>
<path class="st21" d="M122.4,176.1c0,0,3.5,4.4,6.4,6.2c-1.1,1.9-4,2.1-4,2.1L122.4,176.1z"/>
<path class="st13" d="M120.8,190.8c0.2-0.1,0.2-0.2,0.2-0.4c-0.1-0.2-0.3-0.3-0.5-0.2c-5.1,1.5-8.6-1.4-8.7-1.4
	c-0.1-0.1-0.4-0.1-0.5,0c-0.1,0.2-0.1,0.4,0.1,0.5c0.1,0.2,3.8,3.2,9.3,1.6C120.8,190.8,120.8,190.8,120.8,190.8L120.8,190.8z"/>
<path class="st13" d="M107.4,173.7c0.1-0.1,0.1-0.2,0.2-0.3c1.1-3,3.7-3.6,3.7-3.6c0.4-0.1,0.6-0.5,0.6-0.9
	c-0.1-0.3-0.5-0.6-0.9-0.5c-0.1,0-3.4,0.8-4.8,4.5c-0.1,0.4,0.1,0.8,0.4,1C106.9,173.9,107.2,173.9,107.4,173.7z"/>
<path class="st13" d="M129.7,165.5c0.1-0.1,0.1-0.1,0.1-0.2c0-0.4-0.2-0.7-0.6-0.8c-3.9-0.8-6.3,1.6-6.4,1.7c-0.2,0.3-0.2,0.7,0.1,1
	c0.2,0.3,0.7,0.3,1,0c0.1-0.1,1.9-1.9,5-1.3C129.3,166,129.6,165.8,129.7,165.5z"/>
<path class="st11" d="M168.7,226.7c2.3,1.8,4.3,3.5,6.4,5.3c2.1,1.7,4.1,3.5,6.1,5.4c3.9,3.8,7.6,7.7,11.2,11.8
	c3.5,4.1,6.8,8.5,9.9,13.1c0.8,1.1,1.5,2.3,2.3,3.5c0.7,1.1,1.4,2.3,2.1,3.6c0.7,1.2,1.4,2.3,2.1,3.7l1,2.2l0.9,2.3
	c2.1,6,2.6,11.9,2.6,17.6c-0.2,5.6-0.8,11.1-1.8,16.5c-1.1,5.3-2.4,10.5-4,15.7c-1.6,5.1-3.4,10.1-5.6,15.1l-7.2-2.7
	c1.2-4.8,2.4-9.9,3.3-14.8c0.9-5,1.7-10,2.1-15c0.4-4.9,0.6-9.8,0.3-14.6c-0.1-2.3-0.4-4.6-0.8-6.8c-0.5-2.2-1.1-4.3-1.8-6.2
	l-0.6-1.4l-0.7-1.2c-0.6-1-1.3-2.1-1.9-3.1c-0.7-1-1.3-2-2-3c-0.8-1-1.4-2-2.2-2.9c-2.9-4-6.2-7.7-9.5-11.4
	c-3.3-3.7-6.9-7.2-10.5-10.6c-1.8-1.7-3.6-3.3-5.5-5c-1.9-1.6-3.9-3.3-5.6-4.7L168.7,226.7z"/>
<path class="st11" d="M196.8,335l-10.9,8l14.1,7.4c0,0,4.1-7.4,2.8-13.5L196.8,335z"/>
<path class="st11" d="M182.4,356l11.5,3.5l6.1-9.1l-14.1-7.4L182.4,356z"/>
<path class="st14" d="M159.7,212.6c7.7-0.3,22.7,18.5,22.7,18.5l-15.6,22.1c0,0-17.6-14-18.9-23.7
	C146.7,221.2,149.9,213,159.7,212.6L159.7,212.6z"/>
<path class="st15" d="M159.7,212.6c7.7-0.3,22.7,18.5,22.7,18.5l-15.6,22.1c0,0-17.6-14-18.9-23.7
	C146.7,221.2,149.9,213,159.7,212.6L159.7,212.6z"/>
<path class="st22" d="M296.3,588c-0.1,0-0.2,0-0.3,0c-0.7-0.1-1.2-0.6-1.6-1.3c-0.2-0.5-0.1-0.9,0-1.2c1-1.7,6.5-2,7.1-2
	c0.2,0,0.3,0.1,0.4,0.2c0,0.2,0,0.3-0.1,0.4C300.5,585.6,298.2,588,296.3,588L296.3,588z M300.7,584.3c-2.2,0.2-5.1,0.7-5.6,1.6
	c-0.1,0.1-0.2,0.2,0,0.5c0.3,0.5,0.6,0.8,1,0.8C297.2,587.4,298.8,586.3,300.7,584.3L300.7,584.3z"/>
<path class="st22" d="M301.2,584.3c-1.9,0-5.5-1.1-6.2-2.5c-0.1-0.3-0.2-0.9,0.4-1.6c0.5-0.3,1-0.5,1.6-0.5c2.1,0.3,4.7,3.8,4.8,4
	c0.1,0.1,0.1,0.2,0.1,0.3c-0.1,0.1-0.2,0.2-0.3,0.2C301.5,584.3,301.3,584.3,301.2,584.3z M296.7,580.5c-0.3,0-0.5,0.1-0.8,0.3
	c-0.3,0.3-0.3,0.5-0.2,0.7c0.4,0.9,3.3,1.9,5.1,2c-0.9-1.1-2.6-2.9-3.9-3C296.8,580.5,296.8,580.5,296.7,580.5z"/>
<path class="st23" d="M196.6,621.4c-1.4,0-2.7-0.2-3.6-0.9c-0.5-0.4-0.8-1-0.9-1.7c0-0.5,0.3-0.8,0.5-1c1.6-1.1,7.8,1.7,9,2.3
	c0.1,0,0.2,0.2,0.2,0.3c0,0.2-0.1,0.3-0.3,0.4C200.2,621,198.3,621.4,196.6,621.4L196.6,621.4z M193.7,618.3c-0.3,0-0.6,0-0.7,0.1
	c-0.1,0.1-0.2,0.2-0.2,0.4c0.1,0.5,0.3,0.9,0.7,1.2c1,0.8,3.5,0.9,6.8,0.3C198,619.3,195.1,618.3,193.7,618.3z"/>
<path class="st23" d="M201.4,620.8c0,0,0,0-0.1-0.1c-2-0.8-6.2-4.1-5.9-5.8c0-0.4,0.3-0.8,1.2-0.9c3.6-0.5,5.1,6,5.2,6.3
	c0,0.1,0,0.3-0.1,0.4C201.6,620.8,201.5,620.8,201.4,620.8L201.4,620.8z M196.9,614.7c-0.1,0-0.1,0-0.2,0c-0.4,0-0.6,0.1-0.6,0.3
	c-0.1,1,2.7,3.6,4.8,4.7C200.4,618.2,199.1,614.7,196.9,614.7z"/>
<path class="st13" d="M112.8,174.6l2.6-1.7C115.4,172.9,114.6,175.6,112.8,174.6z"/>
<path d="M490.3,28.3H199.6c-13.2,0-23.5,10.8-22.9,24L204,617.5c0.6,13.2,12,24,25.2,24h290.6c13.2,0,23.5-10.8,22.9-24L515.4,52.3
	C514.8,39.1,503.5,28.3,490.3,28.3L490.3,28.3z"/>
<path class="st13" d="M500.9,28.3H210.3c-13.2,0-23.5,10.8-22.9,24l27.3,565.2c0.6,13.2,11.9,24,25.1,24h290.7
	c13.2,0,23.5-10.8,22.8-24L526.1,52.3C525.4,39.1,514.1,28.3,500.9,28.3L500.9,28.3z"/>
<path class="st24" d="M239,625.5c-4.3,0-8.1-3.7-8.3-8L203.4,52.3c-0.2-4.3,3.3-8,7.6-8h290.7c4.3,0,8.2,3.7,8.4,8l27.2,565.2
	c0.2,4.3-3.3,8-7.6,8H239z"/>
<path class="st25" d="M238.9,621.5c-2.2,0-4.1-1.9-4.2-4L207.4,52.3c-0.1-2.1,1.7-4,3.8-4h290.7c2.1,0,4.1,1.9,4.2,4l27.2,565.2
	c0.1,2.1-1.6,4-3.8,4H238.9z"/>
<g class="st26">
	<path class="st27" d="M326.6,588.9h-57.7c-3.2,0-6-2.6-6.1-5.9l-4.2-87.4c-0.1-1.6,0.4-3.1,1.5-4.2s2.5-1.7,4.1-1.7h57.7
		c3.2,0,6,2.6,6.1,5.8l4.3,87.5c0,1.5-0.5,3-1.6,4.2C329.6,588.3,328.2,588.9,326.6,588.9L326.6,588.9z M264.2,491.7
		c-1,0-2,0.4-2.7,1.1c-0.6,0.7-1,1.7-1,2.7l4.3,87.5c0.1,2.1,1.9,3.9,4.1,3.9h57.7c1,0,2-0.4,2.7-1.1c0.7-0.7,1-1.7,1-2.8l-4.3-87.4
		c-0.1-2.2-1.9-3.9-4.1-3.9L264.2,491.7z"/>
	<path class="st28" d="M321.1,512h-54.2c-0.5,0-1-0.4-1-1c0-0.5,0.5-1,1-1h54.2c0.6,0,1,0.5,1,1C322.1,511.6,321.7,512,321.1,512z"
		/>
	<path class="st28" d="M321.7,523.3h-54.2c-0.6,0-1-0.4-1-1c0-0.5,0.4-1,1-1h54.2c0.5,0,1,0.5,1,1
		C322.7,522.9,322.2,523.3,321.7,523.3z"/>
	<path class="st28" d="M322.2,534.6H268c-0.5,0-1-0.4-1-1c0-0.5,0.5-1,1-1h54.2c0.6,0,1,0.5,1,1
		C323.2,534.2,322.8,534.6,322.2,534.6z"/>
	<path class="st28" d="M322.8,545.9h-54.2c-0.6,0-1-0.4-1-1c0-0.5,0.4-1,1-1h54.2c0.5,0,1,0.5,1,1
		C323.8,545.5,323.3,545.9,322.8,545.9z"/>
	<path class="st28" d="M323.3,557.2h-54.2c-0.5,0-1-0.4-1-1c0-0.5,0.5-1,1-1h54.2c0.6,0,1,0.5,1,1
		C324.3,556.8,323.9,557.2,323.3,557.2z"/>
	<path class="st28" d="M312.8,568.5h-43.1c-0.6,0-1-0.4-1-1c0-0.5,0.4-1,1-1h43.1c0.5,0,1,0.5,1,1
		C313.8,568.1,313.3,568.5,312.8,568.5z"/>
</g>
<g class="st26">
	<path class="st27" d="M350.6,273.5l-39.6,6.3c-2.2-5.1-4.2-8.6-5.9-10.6c-1.7-1.9-4.4-3.9-8.2-5.9l1.4,31
		c22,5.8,36.8,11.9,44.4,18.3c10.1,8.7,15.4,19.6,16.1,32.9c0.3,7.8-1.1,14.9-4.2,21.4s-7.3,12-12.5,16.3
		c-5.2,4.4-10.8,7.6-16.7,9.5c-6,2-13.4,3.2-22.1,3.5l0.2,5.5c0.2,4.3-3.1,7.8-7.4,7.8s-8-3.5-8.2-7.8l-0.3-5.5
		c-10.5-0.9-19.1-2.6-25.8-5.1c-6.6-2.5-12.4-5.9-17.4-10.2c-4.9-4.3-8.8-9-11.6-14.1c-2.9-5-5.1-11.1-6.7-18.3l43-5
		c1.7,7.1,3.7,12.2,6,15.3c2.3,3.1,6,5.9,11.1,8.4l-1.8-37.9c-14.6-4-25-7.5-31.2-10.4s-11.7-7.6-16.4-14.1s-7.3-14.3-7.7-23.6
		c-0.7-12.7,3.3-23.4,11.8-31.9s21.5-13.3,39-14.2l-0.2-2.8c-0.2-4.3,3.1-7.8,7.5-7.8c4.3,0,8,3.5,8.2,7.8l0.1,2.8
		c16.1,1,28.5,4.8,37.2,11.4C341.5,253,347.5,262,350.6,273.5L350.6,273.5z M281.2,262.8c-4.5,1.5-7.6,3.3-9.3,5.5
		c-1.7,2.3-2.4,4.9-2.3,7.9c0.2,3.1,1.2,5.9,3.1,8.2c1.9,2.3,5.2,4.3,9.8,5.9L281.2,262.8z M301.9,368.3c6-1.3,10.3-3.6,13-6.7
		s4-6.6,3.8-10.5c-0.2-3.3-1.6-6.4-4.1-9.3c-2.5-2.8-7.2-5.4-14.3-7.9L301.9,368.3z"/>
</g>
<path class="st12" d="M467.4,102.1H269.5l19.3,400.2c1.6,33.8,30.3,61.1,64,61.1h197.9l-19.3-400.2
	C529.8,129.5,501.1,102.1,467.4,102.1L467.4,102.1z"/>
<path class="st28" d="M515.9,102.1H330.6h-61.1c33.7,0,62.4,27.4,64,61.1L349.2,489c1.6,33.7,30.3,61.1,64,61.1h124.3
	c33.7,0,59.8-27.4,58.1-61.1l-15.7-325.8C578.3,129.5,549.6,102.1,515.9,102.1L515.9,102.1z"/>
<path class="st29" d="M471.4,489c1.6,33.7-24.4,61.1-58.2,61.1h61.1h185.4c33.7,0,59.7-27.4,58.1-61.1L471.4,489z"/>
<path class="st24" d="M550.6,304.3H376.4c-2.5,0-4.6-2-4.7-4.5s1.8-4.5,4.3-4.5h174.2c2.5,0,4.6,2,4.7,4.5S553.1,304.3,550.6,304.3z
	"/>
<path class="st24" d="M552,332.7H377.8c-2.5,0-4.6-2.1-4.8-4.6c-0.1-2.5,1.9-4.5,4.4-4.5h174.1c2.5,0,4.7,2,4.8,4.5
	S554.5,332.7,552,332.7z"/>
<path class="st24" d="M553.3,361H379.2c-2.5,0-4.7-2-4.8-4.5c-0.1-2.5,1.8-4.6,4.3-4.6h174.2c2.5,0,4.6,2.1,4.8,4.6
	C557.8,359,555.8,361,553.3,361L553.3,361z"/>
<path class="st24" d="M554.7,389.4H380.5c-2.5,0-4.6-2.1-4.7-4.6s1.8-4.5,4.3-4.5h174.2c2.5,0,4.6,2,4.7,4.5
	C559.1,387.3,557.2,389.4,554.7,389.4z"/>
<path class="st24" d="M486.8,417.7H381.9c-2.5,0-4.6-2-4.8-4.5c-0.1-2.5,1.9-4.6,4.4-4.6h104.9c2.5,0,4.6,2.1,4.7,4.6
	C491.3,415.7,489.3,417.7,486.8,417.7L486.8,417.7z"/>
<path class="st19" d="M513.5,206.4c1.5,30.2-21.8,54.7-52.1,54.7c-30.2,0-55.9-24.5-57.3-54.7c-1.5-30.2,21.8-54.7,52.1-54.7
	C486.4,151.7,512.1,176.2,513.5,206.4L513.5,206.4z"/>
<path class="st17" d="M504,206.4c0.3,7.8-1.3,15.1-4.5,21.5c-6.9,14.1-21.4,23.7-38.5,23.7c-17.2,0-32.6-9.6-40.9-23.7
	c-3.8-6.4-6.1-13.7-6.5-21.5c-1.2-24.9,18.1-45.2,43-45.2C481.6,161.2,502.7,181.5,504,206.4z"/>
<path class="st30" d="M499.5,227.9c-6.9,14.1-21.4,23.7-38.5,23.7c-17.2,0-32.6-9.6-40.9-23.7c11-7.6,24.5-12,39.2-12
	C473.9,215.9,487.8,220.3,499.5,227.9L499.5,227.9z"/>
<path class="st30" d="M478.2,191c0.5,11.1-8.1,20.1-19.2,20.1s-20.5-9-21.1-20.1c-0.5-11.2,8.1-20.2,19.2-20.2
	S477.6,179.8,478.2,191z"/>
<path class="st31" d="M626.5,626.5h-14.7l-1.4-34.1h14.7L626.5,626.5z"/>
<path class="st12" d="M610.4,592.5l0.7,17.5h14.7l-0.7-17.5H610.4z"/>
<path class="st31" d="M751.6,586.6l-14,4.6L720,561.1l14-4.6L751.6,586.6z"/>
<path class="st12" d="M734,556.5l-13.9,4.6l9,15.5l14-4.6L734,556.5z"/>
<path class="st31" d="M676.2,134.8c1.8,2.3,3.4,4.2,4.9,6.4c1.6,2.1,3.1,4.3,4.6,6.4c3,4.3,5.8,8.8,8.5,13.4
	c5.3,9.2,10.1,18.8,13.4,29.4l0.4,1l0.1,0.5l0.3,0.9l0.4,1.6l0.2,1.5c0.3,2,0.3,3.7,0.2,5.4c-0.2,3.3-0.7,6.3-1.3,9.1
	c-1.3,5.6-3.1,10.7-5,15.6c-4,9.9-8.8,19-14.4,27.9l-9.9-4.8c3-9.3,5.9-18.9,8.2-28.3c1.2-4.6,2.1-9.3,2.6-13.7
	c0.2-2.1,0.3-4.2,0.2-5.9c0-0.9-0.1-1.7-0.3-2.2l-0.1-0.3c0-0.1,0-0.1-0.1-0.2v-0.1l-0.2-0.4l-0.3-0.8l-1.3-3.1l-1.5-3.1
	c-1-2.1-2.1-4.2-3.2-6.3c-2.3-4.1-4.8-8.2-7.3-12.3c-2.6-4-5.3-8-8.1-12c-2.7-4-5.7-8-8.4-11.6L676.2,134.8z"/>
<path class="st31" d="M679.5,246.8l-5.8,12.7h16.4c0,0,2.7-9.7-3.3-13.6L679.5,246.8z"/>
<path class="st31" d="M675.6,273.7l15.3-2.9l-0.8-11.3h-16.4L675.6,273.7z"/>
<path class="st13" d="M603.4,70.4c0,1.2-0.6,2.1-1.4,2.1c-0.7,0-1.4-0.9-1.4-2.1s0.7-2.2,1.4-2.2C602.8,68.2,603.4,69.2,603.4,70.4z
	"/>
<path class="st32" d="M602.9,72.5c0,0-2.7,6.9-5.6,10.2c2.1,1.9,5.6,1,5.6,1V72.5z"/>
<path class="st13" d="M607.6,63.8c-0.1,0-0.3,0-0.4-0.1c-2.5-1.8-4.9-0.9-4.9-0.9c-0.4,0.1-0.8-0.1-0.9-0.4c-0.1-0.4,0-0.8,0.4-0.9
	c0.1-0.1,3.1-1.2,6.3,1.1c0.3,0.2,0.3,0.6,0.1,0.9C608.1,63.7,607.9,63.8,607.6,63.8L607.6,63.8z"/>
<path class="st31" d="M641.7,84c-2.1,10.8-4.2,30.5,3.3,37.7c0,0-2.9,10.9-22.9,10.9c-22,0-10.5-10.9-10.5-10.9
	c12-2.9,11.7-11.8,9.6-20.1L641.7,84z"/>
<path class="st13" d="M647.9,125.4c1.6-3.4,3.3-7.4-0.3-8.6c-3.9-1.4-25.5-2.8-33-0.2c-7.4,2.5-5.3,9.5-5.3,9.5L647.9,125.4z"/>
<path class="st33" d="M734.6,594.7c-1.1,1-2.3,1.8-3.2,1.7c-0.4-0.1-0.9-0.3-1.2-1.2c-0.1-0.5,0-0.9,0.3-1.3c1.2-1.9,6-2.7,6.2-2.7
	s0.3,0,0.4,0.1c0.1,0.1,0.1,0.3,0,0.4C736.7,592.4,735.7,593.6,734.6,594.7z M731.3,593.9c-0.1,0.1-0.1,0.2-0.2,0.3
	c-0.2,0.3-0.3,0.5-0.2,0.8c0.2,0.6,0.5,0.7,0.6,0.7c1,0.2,3.2-1.9,4.5-3.7C734.6,592.3,732.3,593,731.3,593.9L731.3,593.9z"/>
<path class="st33" d="M737,591.8L737,591.8c-1.8,0.5-6.1,0.2-7-1.2c-0.2-0.2-0.4-0.8,0.1-1.4c0.3-0.4,0.8-0.6,1.4-0.7
	c2.2-0.2,5.4,2.6,5.5,2.8c0.1,0.1,0.2,0.2,0.1,0.3C737.1,591.7,737.1,591.7,737,591.8L737,591.8z M730.8,589.5
	C730.7,589.6,730.7,589.6,730.8,589.5c-0.4,0.5-0.3,0.7-0.3,0.7c0.6,0.9,3.6,1.3,5.5,1.1c-1-0.8-3-2.2-4.4-2.1
	C731.3,589.2,731,589.3,730.8,589.5L730.8,589.5z"/>
<path class="st33" d="M605.9,627.2c-1.9,0-3.7-0.2-4.3-1.1c-0.2-0.3-0.4-0.8,0-1.5c0.3-0.4,0.6-0.7,1.1-0.8c2.5-0.7,7.6,2.2,7.8,2.4
	c0.2,0,0.2,0.2,0.2,0.3c0,0.2-0.1,0.3-0.3,0.3C609.5,627,607.7,627.2,605.9,627.2L605.9,627.2z M603.6,624.4c-0.3,0-0.5,0-0.7,0.1
	c-0.3,0.1-0.6,0.2-0.7,0.4c-0.2,0.5-0.1,0.7,0,0.8c0.7,1,4.4,1,7.1,0.6C607.9,625.6,605.3,624.4,603.6,624.4L603.6,624.4z"/>
<path class="st33" d="M610.4,626.8c-0.1,0-0.1,0-0.2,0c-1.7-0.8-5.3-4-5-5.6c0.1-0.4,0.3-0.9,1.3-1c0.7-0.1,1.4,0.1,1.9,0.6
	c1.9,1.5,2.3,5.5,2.3,5.6s0,0.3-0.1,0.4C610.5,626.8,610.5,626.8,610.4,626.8z M606.8,620.9c-0.1,0-0.1,0-0.2,0
	c-0.7,0-0.7,0.3-0.7,0.4c-0.2,1,2.2,3.5,4,4.5c-0.2-1.1-0.7-3.5-1.9-4.5C607.6,621,607.2,620.9,606.8,620.9L606.8,620.9z"/>
<path class="st13" d="M736.4,589.5l11.9-11.4c0.5-0.4,1.1-0.5,1.6-0.1l11.2,7.4c1.1,0.8,1.2,2.4,0.2,3.4c-4.2,3.9-6.5,5.6-11.7,10.6
	c-3.3,3.1-12.9,13.6-17.4,17.9c-4.3,4.1-9.2,0.4-7.8-1.8c6.5-9.6,10.5-18.8,10.9-23.7C735.4,591,735.8,590.1,736.4,589.5
	L736.4,589.5z"/>
<path class="st13" d="M611.9,624.8H628c0.6,0,1.1,0.4,1.2,1l2.9,13c0.3,1.4-0.7,2.7-2.1,2.6c-5.8,0-14.1-0.4-21.4-0.4
	c-8.5,0-15.9,0.5-25.8,0.5c-6.1,0-7.7-6.1-5.2-6.7c11.5-2.5,20.9-2.8,30.8-8.9C609.5,625.3,610.7,624.8,611.9,624.8L611.9,624.8z"/>
<path class="st31" d="M591,155c-5.9,8.6-11.9,16.7-18.4,24.6c-6.5,7.9-13.3,15.6-20.8,23l-2.9,2.7l-0.7,0.7l-0.5,0.5l-0.8,0.6
	c-0.9,0.8-2,1.5-3,2c-4,2.2-7.6,2.7-10.9,3.1c-6.4,0.5-11.9-0.4-17.3-1.5c-10.6-2.3-20.2-5.8-29.7-10.4l3.7-10.4
	c9.4,1.7,19.2,3.3,28.3,3.9c4.6,0.2,9.1,0.1,12.6-0.6c1.7-0.3,3-0.9,3.3-1.3c0.1,0,0.1-0.1,0.1-0.1c-0.1,0-0.1,0-0.1,0l0,0l0.2-0.2
	l0.6-0.6l2.3-2.6c6.3-7.1,12.3-14.7,18.2-22.5c5.9-7.7,11.8-15.7,17.4-23.5L591,155z"/>
<path class="st34" d="M671.3,125c13.8,3.1,29.6,40.7,29.6,40.7l-27.7,18.9c0,0-10.5-14.6-18.2-31C646.8,136.4,657.2,121.8,671.3,125
	L671.3,125z"/>
<path class="st16" d="M661.4,148.9l13.1,34.8l-1.3,0.9c0,0-5.6-7.9-11.8-18.6V148.9z"/>
<path class="st34" d="M589,125.7c0,0-15.6,17.7-0.9,127c23.7,0,67.1,0,78.6,0c0.6-12-7-70.9,4.6-127.7c0,0-13.5-2.7-26.3-3.3
	c-10-0.5-24.6-0.8-33.4,0C600,122.7,589,125.7,589,125.7L589,125.7z"/>
<path class="st35" d="M597.7,157.4c-0.2,0.3-2,18-15.5,33.6c-0.3-7-0.4-13.4-0.4-19L597.7,157.4z"/>
<path class="st34" d="M604.5,137.7c1.9,13.9-25.5,49.4-25.5,49.4l-27.5-19c0,0,7.6-19.5,20.5-32.4
	C586.7,121.1,602.4,122.5,604.5,137.7L604.5,137.7z"/>
<path class="st31" d="M491.6,190.9l-10.7-11.1l-11.5,14.8c0,0,8.7,8.5,19.1,6.1L491.6,190.9z"/>
<path class="st31" d="M466.1,173.7l-5,15.5l8.3,5.4l11.5-14.8L466.1,173.7z"/>
<path class="st31" d="M643,67.9c-0.9,14.5-0.7,23.1-8.1,30.6c-11,11.2-29,4.5-32.4-10c-3.2-13.1-1.2-34.7,13.1-40.5
	C629.6,42.3,643.9,53.3,643,67.9z"/>
<path class="st13" d="M655.7,37.5c4.4,4.1,2.5,8.7,0.2,9.6c7.3,1.5,8.3,7.3,4.5,19.5c-3.6,11.6-12.5,27.3-23.5,28.3
	c-16.5,1.4-21.4-15.9-21.5-33c-9.4,0.6-5.3-7.7-16.8-5.8c-9.9,1.7-6.3-6.1-14.8-9.5c-9.8-4-7.8-19.1,1.4-14.8c0,0-4.3,2.8,0.7,5.5
	c4.9,2.6,4.4-3.5,14.3-4.2c9.8-0.8,10.9,7.6,22.4,2.6C637.1,29.3,646.5,29,655.7,37.5L655.7,37.5z"/>
<path class="st13" d="M650.1,46.9c0,0,1.9-3.4,6.4-2.5c4.5,1,4.9,3,7.7,2.7c2.8-0.2,1.8,2.8,1.8,2.8s-0.8-2.3-4.2-1
	c-3.4,1.2-5.6-1.9-7-0.5C653.3,49.8,650.1,46.9,650.1,46.9z"/>
<path class="st31" d="M623.2,71.8c-0.6,3.8-2.7,7.2-5.1,9.3c-3.6,3.1-6.6,0.6-6.8-3.7c0-3.9,1.7-10.3,5.8-11.8
	C621.1,64.1,624,67.5,623.2,71.8z"/>
<path class="st13" d="M616,252.7c0,0,16.7,112.3,25.8,154.4c10.1,46.1,79.7,168.4,79.7,168.4l25.6-8.3c0,0-55.5-110.3-61.2-155.9
	c-6.2-49.5-19.2-158.6-19.2-158.6L616,252.7z"/>
<path class="st34" d="M714.4,567.4c-0.1,0,5.8,9,5.8,9L749,567l-3.4-8.6L714.4,567.4z"/>
<path class="st16" d="M626.5,292.7c19.3,3.8,17.3,75.7,15,112.7c-5.6-26.1-13.7-76.4-19.3-112.1
	C623.5,292.6,624.9,292.4,626.5,292.7z"/>
<path class="st13" d="M588.1,252.7c0,0-2,109.9-0.4,154.7c1.7,46.6,17.9,199.2,17.9,199.2h24.9c0,0,0.9-149.9,2.1-195.6
	c1.2-49.9,7.2-158.3,7.2-158.3L588.1,252.7z"/>
<path class="st34" d="M600.9,596.7c-0.2,0,1.4,10.3,1.4,10.3h30.2l0.9-9.2L600.9,596.7z"/>
</svg>
